# xmcd
#
# Track frame offsets: 
#        150
#        17225
#        28510
#        40730
#        53085
#        64875
#        75330
#        87915
#        99745
#        115147
#        127552
#        142565
#        153432
#
# Disc length: 2255 seconds
#
# Revision: 1
# Processed by: cddbd v1.4PL0 Copyright (c) Steve Scherf et al.
# Submitted via: Gronk 1.4
#
DISCID=9108cd0d
DTITLE=The Drifters - Gold
DYEAR=1900
DGENRE=blues
TTITLE0=Stand by Me
TTITLE1=Another Saturday Night
TTITLE2=Sittin' on the Dock of the Bay
TTITLE3=Under the Boardwalk
TTITLE4=Bring it on home to Me
TTITLE5=Dance with Me
TTITLE6=I Can Help
TTITLE7=Sweets for my Sweet
TTITLE8=Some Kind of Wonderful
TTITLE9=please Stay
TTITLE10=Third Rate Romance
TTITLE11=Ruby Baby
TTITLE12=Cupid
EXTD=
EXTT0=
EXTT1=
EXTT2=
EXTT3=
EXTT4=
EXTT5=
EXTT6=
EXTT7=
EXTT8=
EXTT9=
EXTT10=
EXTT11=
EXTT12=
PLAYORDER=
